<svg width="15" height="19" viewBox="0 0 15 19" fill="none" xmlns="http://www.w3.org/2000/svg">
<path d="M1.70455 0C0.762727 0 0 0.76 0 1.69643V17.3036C0 18.24 0.763636 19 1.70455 19H13.2955C14.2364 19 15 18.24 15 17.3036V10.1786C15 9.27873 14.6408 8.41574 14.0015 7.77946C13.3622 7.14318 12.4951 6.78571 11.5909 6.78571H9.88636C9.43429 6.78571 9.00073 6.60698 8.68107 6.28884C8.3614 5.9707 8.18182 5.53921 8.18182 5.08929V3.39286C8.18182 2.49302 7.82265 1.63003 7.18332 0.993745C6.54399 0.357461 5.67687 0 4.77273 0H1.70455Z" fill="#BD7D49"/>
<path d="M8.38273 0.285905C9.13411 1.14811 9.54705 2.25154 9.54546 3.39286V5.08929C9.54546 5.27657 9.69818 5.42857 9.88636 5.42857H11.5909C12.7377 5.42699 13.8464 5.83796 14.7127 6.58576C14.3126 5.07192 13.5157 3.69097 12.4035 2.5841C11.2914 1.47723 9.90382 0.684139 8.38273 0.285905Z" fill="#BD7D49"/>
</svg>
